<mxfile host="app.diagrams.net" modified="2022-08-22T02:39:24.392Z" agent="5.0 (Macintosh; Intel Mac OS X 10_15_7) AppleWebKit/537.36 (KHTML, like Gecko) Chrome/104.0.0.0 Safari/537.36" etag="7d-E6pdQHX_41YQq0YB0" version="20.2.3" type="github">
  <diagram id="_kS4RUTUrBz-mQ5Mt4HL" name="第 1 页">
    <mxGraphModel dx="988" dy="807" grid="1" gridSize="10" guides="1" tooltips="1" connect="1" arrows="1" fold="1" page="1" pageScale="1" pageWidth="827" pageHeight="1169" math="0" shadow="0">
      <root>
        <mxCell id="0" />
        <mxCell id="1" parent="0" />
        <mxCell id="KwJBwRqZiqFhd_XNpMos-1" value="&lt;font style=&quot;font-size: 18px;&quot;&gt;child(sp)&lt;/font&gt;" style="rounded=0;whiteSpace=wrap;html=1;" vertex="1" parent="1">
          <mxGeometry x="160" y="200" width="180" height="60" as="geometry" />
        </mxCell>
        <mxCell id="KwJBwRqZiqFhd_XNpMos-2" value="" style="rounded=0;whiteSpace=wrap;html=1;" vertex="1" parent="1">
          <mxGeometry x="160" y="260" width="180" height="60" as="geometry" />
        </mxCell>
        <mxCell id="KwJBwRqZiqFhd_XNpMos-3" value="&lt;font style=&quot;font-size: 18px;&quot;&gt;parent(sp)&lt;/font&gt;" style="rounded=0;whiteSpace=wrap;html=1;" vertex="1" parent="1">
          <mxGeometry x="160" y="320" width="180" height="60" as="geometry" />
        </mxCell>
        <mxCell id="KwJBwRqZiqFhd_XNpMos-4" value="" style="rounded=0;whiteSpace=wrap;html=1;" vertex="1" parent="1">
          <mxGeometry x="160" y="380" width="180" height="60" as="geometry" />
        </mxCell>
        <mxCell id="KwJBwRqZiqFhd_XNpMos-5" value="&lt;font style=&quot;font-size: 18px;&quot;&gt;栈区&lt;/font&gt;" style="text;html=1;align=center;verticalAlign=middle;resizable=0;points=[];autosize=1;strokeColor=none;fillColor=none;" vertex="1" parent="1">
          <mxGeometry x="220" y="155" width="60" height="40" as="geometry" />
        </mxCell>
        <mxCell id="KwJBwRqZiqFhd_XNpMos-6" value="" style="ellipse;whiteSpace=wrap;html=1;fontSize=18;" vertex="1" parent="1">
          <mxGeometry x="484" y="155" width="426" height="365" as="geometry" />
        </mxCell>
        <mxCell id="KwJBwRqZiqFhd_XNpMos-7" value="&lt;font style=&quot;font-size: 18px;&quot;&gt;_pParent(sp)&lt;/font&gt;" style="rounded=0;whiteSpace=wrap;html=1;" vertex="1" parent="1">
          <mxGeometry x="607" y="220" width="180" height="60" as="geometry" />
        </mxCell>
        <mxCell id="KwJBwRqZiqFhd_XNpMos-8" value="堆区" style="text;html=1;align=center;verticalAlign=middle;resizable=0;points=[];autosize=1;strokeColor=none;fillColor=none;fontSize=18;" vertex="1" parent="1">
          <mxGeometry x="650" y="110" width="60" height="40" as="geometry" />
        </mxCell>
        <mxCell id="KwJBwRqZiqFhd_XNpMos-9" value="&lt;font style=&quot;font-size: 18px;&quot;&gt;_pChild(sp)&lt;/font&gt;" style="rounded=0;whiteSpace=wrap;html=1;" vertex="1" parent="1">
          <mxGeometry x="607" y="350" width="180" height="60" as="geometry" />
        </mxCell>
        <mxCell id="KwJBwRqZiqFhd_XNpMos-10" value="child对象" style="text;html=1;align=center;verticalAlign=middle;resizable=0;points=[];autosize=1;strokeColor=none;fillColor=none;fontSize=18;" vertex="1" parent="1">
          <mxGeometry x="640" y="180" width="100" height="40" as="geometry" />
        </mxCell>
        <mxCell id="KwJBwRqZiqFhd_XNpMos-11" value="parent对象" style="text;html=1;align=center;verticalAlign=middle;resizable=0;points=[];autosize=1;strokeColor=none;fillColor=none;fontSize=18;" vertex="1" parent="1">
          <mxGeometry x="642" y="310" width="110" height="40" as="geometry" />
        </mxCell>
        <mxCell id="KwJBwRqZiqFhd_XNpMos-12" value="" style="endArrow=classic;html=1;rounded=0;fontSize=18;" edge="1" parent="1" target="KwJBwRqZiqFhd_XNpMos-7">
          <mxGeometry width="50" height="50" relative="1" as="geometry">
            <mxPoint x="340" y="230" as="sourcePoint" />
            <mxPoint x="390" y="180" as="targetPoint" />
          </mxGeometry>
        </mxCell>
        <mxCell id="KwJBwRqZiqFhd_XNpMos-13" value="" style="endArrow=classic;html=1;rounded=0;fontSize=18;" edge="1" parent="1">
          <mxGeometry width="50" height="50" relative="1" as="geometry">
            <mxPoint x="340" y="360" as="sourcePoint" />
            <mxPoint x="607" y="374.9579831932774" as="targetPoint" />
          </mxGeometry>
        </mxCell>
        <mxCell id="KwJBwRqZiqFhd_XNpMos-14" value="" style="endArrow=classic;html=1;rounded=0;fontSize=18;entryX=0.128;entryY=0;entryDx=0;entryDy=0;entryPerimeter=0;" edge="1" parent="1" target="KwJBwRqZiqFhd_XNpMos-9">
          <mxGeometry width="50" height="50" relative="1" as="geometry">
            <mxPoint x="630" y="280" as="sourcePoint" />
            <mxPoint x="680" y="230" as="targetPoint" />
          </mxGeometry>
        </mxCell>
        <mxCell id="KwJBwRqZiqFhd_XNpMos-15" value="" style="endArrow=classic;html=1;rounded=0;fontSize=18;entryX=0.8;entryY=1.05;entryDx=0;entryDy=0;entryPerimeter=0;" edge="1" parent="1" target="KwJBwRqZiqFhd_XNpMos-7">
          <mxGeometry width="50" height="50" relative="1" as="geometry">
            <mxPoint x="752" y="350" as="sourcePoint" />
            <mxPoint x="802" y="300" as="targetPoint" />
          </mxGeometry>
        </mxCell>
        <mxCell id="KwJBwRqZiqFhd_XNpMos-16" value="child指向child对象&lt;br&gt;_pChild指向child对象" style="text;html=1;align=center;verticalAlign=middle;resizable=0;points=[];autosize=1;strokeColor=none;fillColor=none;fontSize=18;" vertex="1" parent="1">
          <mxGeometry x="340" y="500" width="190" height="60" as="geometry" />
        </mxCell>
        <mxCell id="KwJBwRqZiqFhd_XNpMos-17" value="2" style="text;html=1;align=center;verticalAlign=middle;resizable=0;points=[];autosize=1;strokeColor=none;fillColor=none;fontSize=18;" vertex="1" parent="1">
          <mxGeometry x="430" y="190" width="30" height="40" as="geometry" />
        </mxCell>
        <mxCell id="KwJBwRqZiqFhd_XNpMos-18" value="2" style="text;html=1;align=center;verticalAlign=middle;resizable=0;points=[];autosize=1;strokeColor=none;fillColor=none;fontSize=18;" vertex="1" parent="1">
          <mxGeometry x="415" y="330" width="30" height="40" as="geometry" />
        </mxCell>
        <mxCell id="KwJBwRqZiqFhd_XNpMos-19" value="2" style="text;html=1;align=center;verticalAlign=middle;resizable=0;points=[];autosize=1;strokeColor=none;fillColor=none;fontSize=18;" vertex="1" parent="1">
          <mxGeometry x="590" y="300" width="30" height="40" as="geometry" />
        </mxCell>
        <mxCell id="KwJBwRqZiqFhd_XNpMos-20" value="2" style="text;html=1;align=center;verticalAlign=middle;resizable=0;points=[];autosize=1;strokeColor=none;fillColor=none;fontSize=18;" vertex="1" parent="1">
          <mxGeometry x="757" y="300" width="30" height="40" as="geometry" />
        </mxCell>
        <mxCell id="KwJBwRqZiqFhd_XNpMos-21" value="&lt;font style=&quot;font-size: 18px;&quot;&gt;child(sp)&lt;/font&gt;" style="rounded=0;whiteSpace=wrap;html=1;" vertex="1" parent="1">
          <mxGeometry x="170" y="785" width="180" height="60" as="geometry" />
        </mxCell>
        <mxCell id="KwJBwRqZiqFhd_XNpMos-22" value="" style="rounded=0;whiteSpace=wrap;html=1;" vertex="1" parent="1">
          <mxGeometry x="170" y="845" width="180" height="60" as="geometry" />
        </mxCell>
        <mxCell id="KwJBwRqZiqFhd_XNpMos-23" value="&lt;font style=&quot;font-size: 18px;&quot;&gt;parent(sp)&lt;/font&gt;" style="rounded=0;whiteSpace=wrap;html=1;" vertex="1" parent="1">
          <mxGeometry x="170" y="905" width="180" height="60" as="geometry" />
        </mxCell>
        <mxCell id="KwJBwRqZiqFhd_XNpMos-24" value="" style="rounded=0;whiteSpace=wrap;html=1;" vertex="1" parent="1">
          <mxGeometry x="170" y="965" width="180" height="60" as="geometry" />
        </mxCell>
        <mxCell id="KwJBwRqZiqFhd_XNpMos-25" value="&lt;font style=&quot;font-size: 18px;&quot;&gt;栈区&lt;/font&gt;" style="text;html=1;align=center;verticalAlign=middle;resizable=0;points=[];autosize=1;strokeColor=none;fillColor=none;" vertex="1" parent="1">
          <mxGeometry x="230" y="740" width="60" height="40" as="geometry" />
        </mxCell>
        <mxCell id="KwJBwRqZiqFhd_XNpMos-26" value="" style="ellipse;whiteSpace=wrap;html=1;fontSize=18;" vertex="1" parent="1">
          <mxGeometry x="494" y="740" width="426" height="365" as="geometry" />
        </mxCell>
        <mxCell id="KwJBwRqZiqFhd_XNpMos-27" value="&lt;font style=&quot;font-size: 18px;&quot;&gt;_pParent(sp)&lt;/font&gt;" style="rounded=0;whiteSpace=wrap;html=1;" vertex="1" parent="1">
          <mxGeometry x="617" y="805" width="180" height="60" as="geometry" />
        </mxCell>
        <mxCell id="KwJBwRqZiqFhd_XNpMos-28" value="&lt;font style=&quot;font-size: 18px;&quot;&gt;_pChild(sp)&lt;/font&gt;" style="rounded=0;whiteSpace=wrap;html=1;" vertex="1" parent="1">
          <mxGeometry x="617" y="935" width="180" height="60" as="geometry" />
        </mxCell>
        <mxCell id="KwJBwRqZiqFhd_XNpMos-29" value="child对象" style="text;html=1;align=center;verticalAlign=middle;resizable=0;points=[];autosize=1;strokeColor=none;fillColor=none;fontSize=18;" vertex="1" parent="1">
          <mxGeometry x="650" y="765" width="100" height="40" as="geometry" />
        </mxCell>
        <mxCell id="KwJBwRqZiqFhd_XNpMos-30" value="parent对象" style="text;html=1;align=center;verticalAlign=middle;resizable=0;points=[];autosize=1;strokeColor=none;fillColor=none;fontSize=18;" vertex="1" parent="1">
          <mxGeometry x="652" y="895" width="110" height="40" as="geometry" />
        </mxCell>
        <mxCell id="KwJBwRqZiqFhd_XNpMos-31" value="" style="endArrow=classic;html=1;rounded=0;fontSize=18;" edge="1" parent="1">
          <mxGeometry width="50" height="50" relative="1" as="geometry">
            <mxPoint x="350" y="815" as="sourcePoint" />
            <mxPoint x="530" y="730" as="targetPoint" />
          </mxGeometry>
        </mxCell>
        <mxCell id="KwJBwRqZiqFhd_XNpMos-32" value="1" style="edgeLabel;html=1;align=center;verticalAlign=middle;resizable=0;points=[];fontSize=18;" vertex="1" connectable="0" parent="KwJBwRqZiqFhd_XNpMos-31">
          <mxGeometry x="-0.0492" y="-1" relative="1" as="geometry">
            <mxPoint as="offset" />
          </mxGeometry>
        </mxCell>
        <mxCell id="KwJBwRqZiqFhd_XNpMos-33" value="" style="endArrow=classic;html=1;rounded=0;fontSize=18;" edge="1" parent="1">
          <mxGeometry width="50" height="50" relative="1" as="geometry">
            <mxPoint x="350" y="995" as="sourcePoint" />
            <mxPoint x="520" y="1120" as="targetPoint" />
          </mxGeometry>
        </mxCell>
        <mxCell id="KwJBwRqZiqFhd_XNpMos-34" value="1" style="edgeLabel;html=1;align=center;verticalAlign=middle;resizable=0;points=[];fontSize=18;" vertex="1" connectable="0" parent="KwJBwRqZiqFhd_XNpMos-33">
          <mxGeometry x="-0.0988" y="-3" relative="1" as="geometry">
            <mxPoint as="offset" />
          </mxGeometry>
        </mxCell>
        <mxCell id="KwJBwRqZiqFhd_XNpMos-35" value="" style="endArrow=classic;html=1;rounded=0;fontSize=18;entryX=0.128;entryY=0;entryDx=0;entryDy=0;entryPerimeter=0;" edge="1" parent="1" target="KwJBwRqZiqFhd_XNpMos-28">
          <mxGeometry width="50" height="50" relative="1" as="geometry">
            <mxPoint x="640" y="865" as="sourcePoint" />
            <mxPoint x="690" y="815" as="targetPoint" />
          </mxGeometry>
        </mxCell>
        <mxCell id="KwJBwRqZiqFhd_XNpMos-36" value="1" style="edgeLabel;html=1;align=center;verticalAlign=middle;resizable=0;points=[];fontSize=18;" vertex="1" connectable="0" parent="KwJBwRqZiqFhd_XNpMos-35">
          <mxGeometry x="-0.0714" y="3" relative="1" as="geometry">
            <mxPoint as="offset" />
          </mxGeometry>
        </mxCell>
        <mxCell id="KwJBwRqZiqFhd_XNpMos-37" value="" style="endArrow=classic;html=1;rounded=0;fontSize=18;entryX=0.8;entryY=1.05;entryDx=0;entryDy=0;entryPerimeter=0;" edge="1" parent="1" target="KwJBwRqZiqFhd_XNpMos-27">
          <mxGeometry width="50" height="50" relative="1" as="geometry">
            <mxPoint x="762" y="935" as="sourcePoint" />
            <mxPoint x="812" y="885" as="targetPoint" />
          </mxGeometry>
        </mxCell>
        <mxCell id="KwJBwRqZiqFhd_XNpMos-38" value="1" style="edgeLabel;html=1;align=center;verticalAlign=middle;resizable=0;points=[];fontSize=18;" vertex="1" connectable="0" parent="KwJBwRqZiqFhd_XNpMos-37">
          <mxGeometry x="0.2082" y="-2" relative="1" as="geometry">
            <mxPoint as="offset" />
          </mxGeometry>
        </mxCell>
        <mxCell id="KwJBwRqZiqFhd_XNpMos-39" value="内存释放失败" style="text;html=1;align=center;verticalAlign=middle;resizable=0;points=[];autosize=1;strokeColor=none;fillColor=none;fontSize=18;" vertex="1" parent="1">
          <mxGeometry x="400" y="1140" width="130" height="40" as="geometry" />
        </mxCell>
        <mxCell id="KwJBwRqZiqFhd_XNpMos-40" value="堆区" style="text;html=1;align=center;verticalAlign=middle;resizable=0;points=[];autosize=1;strokeColor=none;fillColor=none;fontSize=18;" vertex="1" parent="1">
          <mxGeometry x="660" y="690" width="60" height="40" as="geometry" />
        </mxCell>
      </root>
    </mxGraphModel>
  </diagram>
</mxfile>
